 0 
SECTION
 2 
HEADER
 9 
$ACADVER
 1 
AC1004
 9 
$EXTMIN
 10 
0.0
 20 
0.0
 9 
$EXTMAX
 10 
96.52
 20 
63.5
 9 
$LIMMIN
 10 
0.0
 20 
0.0
 9 
$LIMMAX
 10 
96.52
 20 
63.5
 9 
$INSBASE
 10 
0.0
 20 
0.0
 9 
$VIEWCTR
 10 
48.26
 20 
31.75
 9 
$VIEWSIZE
 40 
63.5
 9 
$ORTHOMODE
 70 
 0 
 9 
$REGENMODE
 70 
 1 
 9 
$FILLMODE
 70 
 1 
 9 
$QTEXTMODE
 70 
 0 
 9 
$DRAGMODE
 70 
 2 
 9 
$LTSCALE
 40 
1.0
 9 
$OSMODE
 70 
 0 
 9 
$ATTMODE
 70 
 1 
 9 
$TEXTSIZE
 40 
0.2
 9 
$TRACEWID
 40 
0.05
 9 
$TEXTSTYLE
 7 
STANDARD
 9 
$CLAYER
 8 
0
 9 
$CELTYPE
 6 
BYLAYER
 9 
$CECOLOR
 62 
 256 
 9 
$DIMSCALE
 40 
1.0
 9 
$DIMLFAC
 40 
1.0
 9 
$LUNITS
 70 
 2 
 9 
$LUPREC
 70 
 4 
 9 
$AXISMODE
 70 
 0 
 9 
$AXISUNIT
 10 
0.0
 20 
0.0
 9 
$SKETCHINC
 40 
0.1
 9 
$MENU
 1 
acad
 9 
$ELEVATION
 40 
0.0
 9 
$THICKNESS
 40 
0.0
 9 
$VIEWDIR
 10 
0.0
 20 
0.0
 30 
1.0
 9 
$LIMCHECK
 70 
 0 
 9 
$BLIPMODE
 70 
 1 
 9 
$FASTZOOM
 70 
 1 
 9 
$SKPOLY
 70 
 0 
 9 
$ANGBASE
 50 
0.0
 9 
$ANGDIR
 70 
 0 
 9 
$PDMODE
 70 
 0 
 9 
$PDSIZE
 40 
0.0
 9 
$PLINEWID
 40 
0.0
 9 
$COORDS
 70 
 0 
 9 
$ATTDIA
 70 
 0 
 9 
$ATTREQ
 70 
 1 
 0 
ENDSEC
 0 
SECTION
 2 
TABLES
 0 
TABLE
 2 
LTYPE
 70 
 10 
 0 
LTYPE
 2 
CONTINUOUS
 70 
 64 
 3 
Solid line
 72 
 65 
 73 
 0 
 40 
0.0
 0 
ENDTAB
 0 
TABLE
 2 
LAYER
 70 
 153 
 0 
LAYER
 2 
0
 70 
 64 
 62 
 7 
 6 
CONTINUOUS
 0 
ENDTAB
 0 
ENDSEC
 0 
SECTION
 2 
BLOCKS
 0 
ENDSEC
 0 
SECTION
 2 
ENTITIES
 0 
LINE
 8 
0
 62 
 7 
 10 
0.0
 20 
63.5
 11 
96.52
 21 
63.5
 0 
LINE
 8 
0
 62 
 7 
 10 
96.52
 20 
63.5
 11 
96.52
 21 
0.0
 0 
LINE
 8 
0
 62 
 7 
 10 
96.52
 20 
0.0
 11 
0.0
 21 
0.0
 0 
LINE
 8 
0
 62 
 7 
 10 
0.0
 20 
0.0
 11 
0.0
 21 
63.5
 0 
LINE
 8 
0
 62 
 7 
 10 
41.834
 20 
32.461
 11 
43.256
 21 
32.461
 0 
LINE
 8 
0
 62 
 7 
 10 
43.256
 20 
32.461
 11 
43.256
 21 
31.039
 0 
LINE
 8 
0
 62 
 7 
 10 
43.256
 20 
31.039
 11 
41.834
 21 
31.039
 0 
LINE
 8 
0
 62 
 7 
 10 
41.834
 20 
31.039
 11 
41.834
 21 
32.461
 0 
CIRCLE
 8 
0
 62 
 7 
 10 
42.545
 20 
31.75
 40 
0.356
 0 
CIRCLE
 8 
0
 62 
 7 
 10 
42.545
 20 
29.21
 40 
0.711
 0 
CIRCLE
 8 
0
 62 
 7 
 10 
42.545
 20 
29.21
 40 
0.356
 0 
CIRCLE
 8 
0
 62 
 7 
 10 
42.545
 20 
26.67
 40 
0.711
 0 
CIRCLE
 8 
0
 62 
 7 
 10 
42.545
 20 
26.67
 40 
0.356
 0 
CIRCLE
 8 
0
 62 
 7 
 10 
42.545
 20 
24.13
 40 
0.711
 0 
CIRCLE
 8 
0
 62 
 7 
 10 
42.545
 20 
24.13
 40 
0.356
 0 
CIRCLE
 8 
0
 62 
 7 
 10 
50.165
 20 
24.13
 40 
0.711
 0 
CIRCLE
 8 
0
 62 
 7 
 10 
50.165
 20 
24.13
 40 
0.356
 0 
CIRCLE
 8 
0
 62 
 7 
 10 
50.165
 20 
26.67
 40 
0.711
 0 
CIRCLE
 8 
0
 62 
 7 
 10 
50.165
 20 
26.67
 40 
0.356
 0 
CIRCLE
 8 
0
 62 
 7 
 10 
50.165
 20 
29.21
 40 
0.711
 0 
CIRCLE
 8 
0
 62 
 7 
 10 
50.165
 20 
29.21
 40 
0.356
 0 
CIRCLE
 8 
0
 62 
 7 
 10 
50.165
 20 
31.75
 40 
0.711
 0 
CIRCLE
 8 
0
 62 
 7 
 10 
50.165
 20 
31.75
 40 
0.356
 0 
LINE
 8 
0
 62 
 7 
 10 
45.72
 20 
32.766
 11 
44.196
 21 
32.766
 0 
LINE
 8 
0
 62 
 7 
 10 
44.196
 20 
32.766
 11 
44.196
 21 
23.114
 0 
LINE
 8 
0
 62 
 7 
 10 
44.196
 20 
23.114
 11 
48.514
 21 
23.114
 0 
LINE
 8 
0
 62 
 7 
 10 
48.514
 20 
23.114
 11 
48.514
 21 
32.766
 0 
LINE
 8 
0
 62 
 7 
 10 
48.514
 20 
32.766
 11 
46.99
 21 
32.766
 0 
LINE
 8 
0
 62 
 7 
 10 
46.99
 20 
32.766
 11 
46.99
 21 
31.496
 0 
LINE
 8 
0
 62 
 7 
 10 
46.99
 20 
31.496
 11 
45.72
 21 
31.496
 0 
LINE
 8 
0
 62 
 7 
 10 
45.72
 20 
31.496
 11 
45.72
 21 
32.766
 0 
LINE
 8 
0
 62 
 7 
 10 
45.72
 20 
26.67
 11 
46.787
 21 
26.67
 0 
LINE
 8 
0
 62 
 7 
 10 
46.787
 20 
26.67
 11 
46.99
 21 
26.873
 0 
LINE
 8 
0
 62 
 7 
 10 
46.99
 20 
26.873
 11 
46.99
 21 
27.305
 0 
LINE
 8 
0
 62 
 7 
 10 
46.99
 20 
27.305
 11 
46.787
 21 
27.508
 0 
LINE
 8 
0
 62 
 7 
 10 
46.787
 20 
27.508
 11 
45.72
 21 
27.508
 0 
LINE
 8 
0
 62 
 7 
 10 
45.923
 20 
28.143
 11 
45.72
 21 
28.372
 0 
LINE
 8 
0
 62 
 7 
 10 
45.72
 20 
28.372
 11 
46.99
 21 
28.372
 0 
LINE
 8 
0
 62 
 7 
 10 
46.99
 20 
28.143
 11 
46.99
 21 
28.575
 0 
CIRCLE
 8 
0
 62 
 7 
 10 
35.56
 20 
22.86
 40 
0.711
 0 
CIRCLE
 8 
0
 62 
 7 
 10 
35.56
 20 
22.86
 40 
0.356
 0 
CIRCLE
 8 
0
 62 
 7 
 10 
35.56
 20 
12.7
 40 
0.711
 0 
CIRCLE
 8 
0
 62 
 7 
 10 
35.56
 20 
12.7
 40 
0.356
 0 
LINE
 8 
0
 62 
 7 
 10 
34.29
 20 
20.701
 11 
36.83
 21 
20.701
 0 
LINE
 8 
0
 62 
 7 
 10 
36.83
 20 
14.859
 11 
36.83
 21 
20.701
 0 
LINE
 8 
0
 62 
 7 
 10 
36.83
 20 
14.859
 11 
34.29
 21 
14.859
 0 
LINE
 8 
0
 62 
 7 
 10 
34.29
 20 
20.701
 11 
34.29
 21 
14.859
 0 
LINE
 8 
0
 62 
 7 
 10 
35.56
 20 
20.701
 11 
35.56
 21 
21.59
 0 
LINE
 8 
0
 62 
 7 
 10 
35.56
 20 
14.859
 11 
35.56
 21 
13.97
 0 
LINE
 8 
0
 62 
 7 
 10 
36.195
 20 
16.51
 11 
34.925
 21 
16.51
 0 
LINE
 8 
0
 62 
 7 
 10 
34.925
 20 
16.51
 11 
34.925
 21 
17.145
 0 
LINE
 8 
0
 62 
 7 
 10 
34.925
 20 
17.145
 11 
35.128
 21 
17.348
 0 
LINE
 8 
0
 62 
 7 
 10 
35.128
 20 
17.348
 11 
35.357
 21 
17.348
 0 
LINE
 8 
0
 62 
 7 
 10 
35.357
 20 
17.348
 11 
35.56
 21 
17.145
 0 
LINE
 8 
0
 62 
 7 
 10 
35.56
 20 
17.145
 11 
35.56
 21 
16.51
 0 
LINE
 8 
0
 62 
 7 
 10 
35.56
 20 
16.713
 11 
36.195
 21 
17.348
 0 
LINE
 8 
0
 62 
 7 
 10 
35.128
 20 
17.983
 11 
34.925
 21 
18.212
 0 
LINE
 8 
0
 62 
 7 
 10 
34.925
 20 
18.212
 11 
36.195
 21 
18.212
 0 
LINE
 8 
0
 62 
 7 
 10 
36.195
 20 
17.983
 11 
36.195
 21 
18.415
 0 
CIRCLE
 8 
0
 62 
 7 
 10 
19.685
 20 
33.655
 40 
0.711
 0 
CIRCLE
 8 
0
 62 
 7 
 10 
19.685
 20 
33.655
 40 
0.356
 0 
CIRCLE
 8 
0
 62 
 7 
 10 
19.685
 20 
23.495
 40 
0.711
 0 
CIRCLE
 8 
0
 62 
 7 
 10 
19.685
 20 
23.495
 40 
0.356
 0 
LINE
 8 
0
 62 
 7 
 10 
18.415
 20 
31.496
 11 
20.955
 21 
31.496
 0 
LINE
 8 
0
 62 
 7 
 10 
20.955
 20 
25.654
 11 
20.955
 21 
31.496
 0 
LINE
 8 
0
 62 
 7 
 10 
20.955
 20 
25.654
 11 
18.415
 21 
25.654
 0 
LINE
 8 
0
 62 
 7 
 10 
18.415
 20 
31.496
 11 
18.415
 21 
25.654
 0 
LINE
 8 
0
 62 
 7 
 10 
19.685
 20 
31.496
 11 
19.685
 21 
32.385
 0 
LINE
 8 
0
 62 
 7 
 10 
19.685
 20 
25.654
 11 
19.685
 21 
24.765
 0 
LINE
 8 
0
 62 
 7 
 10 
20.32
 20 
27.305
 11 
19.05
 21 
27.305
 0 
LINE
 8 
0
 62 
 7 
 10 
19.05
 20 
27.305
 11 
19.05
 21 
27.94
 0 
LINE
 8 
0
 62 
 7 
 10 
19.05
 20 
27.94
 11 
19.253
 21 
28.143
 0 
LINE
 8 
0
 62 
 7 
 10 
19.253
 20 
28.143
 11 
19.482
 21 
28.143
 0 
LINE
 8 
0
 62 
 7 
 10 
19.482
 20 
28.143
 11 
19.685
 21 
27.94
 0 
LINE
 8 
0
 62 
 7 
 10 
19.685
 20 
27.94
 11 
19.685
 21 
27.305
 0 
LINE
 8 
0
 62 
 7 
 10 
19.685
 20 
27.508
 11 
20.32
 21 
28.143
 0 
LINE
 8 
0
 62 
 7 
 10 
19.253
 20 
28.575
 11 
19.05
 21 
28.778
 0 
LINE
 8 
0
 62 
 7 
 10 
19.05
 20 
28.778
 11 
19.05
 21 
29.21
 0 
LINE
 8 
0
 62 
 7 
 10 
19.05
 20 
29.21
 11 
19.253
 21 
29.413
 0 
LINE
 8 
0
 62 
 7 
 10 
19.253
 20 
29.413
 11 
19.482
 21 
29.413
 0 
LINE
 8 
0
 62 
 7 
 10 
19.482
 20 
29.413
 11 
19.685
 21 
29.21
 0 
LINE
 8 
0
 62 
 7 
 10 
19.685
 20 
29.21
 11 
19.685
 21 
28.778
 0 
LINE
 8 
0
 62 
 7 
 10 
19.685
 20 
28.778
 11 
19.888
 21 
28.575
 0 
LINE
 8 
0
 62 
 7 
 10 
19.888
 20 
28.575
 11 
20.32
 21 
28.575
 0 
LINE
 8 
0
 62 
 7 
 10 
20.32
 20 
28.575
 11 
20.32
 21 
29.413
 0 
ENDSEC
 0 
EOF
